# xmcd
#
# Track frame offsets:
#	182
#	2257
#	21182
#	35232
#	55445
#	68720
#	82407
#	96160
#	112070
#	130665
#	141405
#	155170
#	167057
#	179820
#	201537
#	215595
#	228697
#
# Disc length: 3287 seconds
#
# Revision: 1
# Processed by: cddbd v1.5PL3 Copyright (c) Steve Scherf et al.
# Submitted via: CDex 1.50Beta5
#
DISCID=0b0cd511
DTITLE=The Oom Maw Maw - Roger's Living Room
DYEAR=1900
DGENRE=Jazz -> General Jazz
TTITLE0=Pa Pa Oom Maw Maw II
TTITLE1=Son De La Loma
TTITLE2=Anyone Who Had A Heart
TTITLE3=My Favourite Things
TTITLE4=You Go To My Head
TTITLE5=Love For Sale
TTITLE6=Mojo Hannah
TTITLE7=El Nino Mudo
TTITLE8=West Side Story, Prologue
TTITLE9=Just Befor Breakfast
TTITLE10=Celona Bar
TTITLE11=My Foolish Heart
TTITLE12=Better Than Anything
TTITLE13=Ain't No Mountain High Enough
TTITLE14=Give Up The Funk (Tear The Roof Off The Sucker)
TTITLE15=I Want You Back
TTITLE16=Non, Non, Rien N'a Change
EXTD=
EXTT0=
EXTT1=
EXTT2=
EXTT3=
EXTT4=
EXTT5=
EXTT6=
EXTT7=
EXTT8=
EXTT9=
EXTT10=
EXTT11=
EXTT12=
EXTT13=
EXTT14=
EXTT15=
EXTT16=
PLAYORDER=
